<svg id="Layer_1" data-name="Layer 1" xmlns="http://www.w3.org/2000/svg" viewBox="0 0 500 499.99"><defs><style>.cls-1{fill:#231f20;}</style></defs><path class="cls-1" d="M255.23,77.08c35.16,0,63.92-8.85,64.17-19.66s-28.1-19.66-63.31-19.66-63.89,8.72-64.22,19.59S220,77.08,255.23,77.08M250,461.33c-123,0-222.65-99.7-222.65-222.66,0-71.85,34.21-135.63,87.06-176.35-89,100.58,10.49,317.2,67.91,323,71.52,4.41,98.59-221.6,182.6-250.56,63-23.65,110.75,70.73,82,177.12C417.63,402.39,343,459.73,250,461.33M147.11,54.56c16.9-19,45.55-33.88,84-37.59,6.25-.52,12.51-.95,18.9-.95A221.75,221.75,0,0,1,410.13,84.2c-5.66-1.88-13.57-4.45-28.75-4.45-123.3,0-165.14,243.5-202.09,242.67-24.47.83-108.2-182.3-32.18-267.86M250,0C111.93,0,0,111.92,0,250S111.93,500,250,500,500,388.08,500,250,388.07,0,250,0" transform="translate(0 0)"/></svg>