<?xml version="1.0" encoding="utf-8"?>
<!-- Generator: Adobe Illustrator 25.0.1, SVG Export Plug-In . SVG Version: 6.00 Build 0)  -->
<svg version="1.1" id="Capa_1" xmlns="http://www.w3.org/2000/svg" xmlns:xlink="http://www.w3.org/1999/xlink" x="0px" y="0px"
	 viewBox="0 0 934.7 455.6" style="enable-background:new 0 0 934.7 455.6;" xml:space="preserve">
<style type="text/css">
	.st0{fill:url(#SVGID_1_);}
	.st1{fill:url(#SVGID_2_);}
	.st2{fill:url(#SVGID_3_);}
	.st3{fill:url(#SVGID_4_);}
	.st4{fill:url(#SVGID_5_);}
	.st5{fill:url(#SVGID_6_);}
	.st6{fill:url(#SVGID_7_);}
	.st7{fill:url(#SVGID_8_);}
	.st8{fill:url(#SVGID_9_);}
	.st9{fill:url(#SVGID_10_);}
	.st10{fill:url(#SVGID_11_);}
	.st11{fill:url(#SVGID_12_);}
	.st12{fill:url(#SVGID_13_);}
	.st13{fill:url(#SVGID_14_);}
	.st14{fill:url(#SVGID_15_);}
	.st15{fill:url(#SVGID_16_);}
	.st16{fill:url(#SVGID_17_);}
	.st17{fill:url(#SVGID_18_);}
	.st18{fill:url(#SVGID_19_);}
	.st19{fill:url(#SVGID_20_);}
	.st20{fill:url(#SVGID_21_);}
	.st21{fill:url(#SVGID_22_);}
	.st22{fill:url(#SVGID_23_);}
	.st23{fill:url(#SVGID_24_);}
	.st24{fill:url(#SVGID_25_);}
	.st25{fill:url(#SVGID_26_);}
	.st26{fill:url(#SVGID_27_);}
	.st27{fill:url(#SVGID_28_);}
	.st28{fill:url(#SVGID_29_);}
	.st29{fill:url(#SVGID_30_);}
	.st30{fill:url(#SVGID_31_);}
</style>
<g id="Capa_2_1_">
	<g id="G2">
		<g id="Logo">
			
				<linearGradient id="SVGID_1_" gradientUnits="userSpaceOnUse" x1="6.34" y1="348.62" x2="929.7" y2="348.62" gradientTransform="matrix(1 0 0 -1 0 458)">
				<stop  offset="0" style="stop-color:#2ED0E6"/>
				<stop  offset="8.000000e-02" style="stop-color:#2DD2D5"/>
				<stop  offset="0.18" style="stop-color:#2DD4CA"/>
				<stop  offset="0.28" style="stop-color:#2DD4C6"/>
				<stop  offset="0.67" style="stop-color:#2BD7A6"/>
				<stop  offset="0.89" style="stop-color:#2BD991"/>
				<stop  offset="1" style="stop-color:#2ADB80"/>
			</linearGradient>
			<path class="st0" d="M10.9,64.8V32.8H140v31.9H92.8v121.2H58.2V64.8H10.9z"/>
			
				<linearGradient id="SVGID_2_" gradientUnits="userSpaceOnUse" x1="6.34" y1="348.62" x2="929.7" y2="348.62" gradientTransform="matrix(1 0 0 -1 0 458)">
				<stop  offset="0" style="stop-color:#2ED0E6"/>
				<stop  offset="8.000000e-02" style="stop-color:#2DD2D5"/>
				<stop  offset="0.18" style="stop-color:#2DD4CA"/>
				<stop  offset="0.28" style="stop-color:#2DD4C6"/>
				<stop  offset="0.67" style="stop-color:#2BD7A6"/>
				<stop  offset="0.89" style="stop-color:#2BD991"/>
				<stop  offset="1" style="stop-color:#2ADB80"/>
			</linearGradient>
			<path class="st1" d="M269.3,32.8v31.9h-79.6v28h66.9v31.9h-66.9V154h80.7v31.9H154.9V32.8H269.3z"/>
			
				<linearGradient id="SVGID_3_" gradientUnits="userSpaceOnUse" x1="6.34" y1="348.595" x2="929.7" y2="348.595" gradientTransform="matrix(1 0 0 -1 0 458)">
				<stop  offset="0" style="stop-color:#2ED0E6"/>
				<stop  offset="8.000000e-02" style="stop-color:#2DD2D5"/>
				<stop  offset="0.18" style="stop-color:#2DD4CA"/>
				<stop  offset="0.28" style="stop-color:#2DD4C6"/>
				<stop  offset="0.67" style="stop-color:#2BD7A6"/>
				<stop  offset="0.89" style="stop-color:#2BD991"/>
				<stop  offset="1" style="stop-color:#2ADB80"/>
			</linearGradient>
			<path class="st2" d="M403.2,42c12.6,7.5,22.8,18.7,29.1,31.9l-33.7,12.5c-7.6-14.5-22.8-23.5-39.2-23.2c-12.5,0-23,4.4-31.5,13.3
				c-8.5,8.8-12.7,19.7-12.7,32.8s4.2,24.1,12.7,33c8.5,8.8,19,13.1,31.5,13.1c17.3,0,31.5-9,39.2-23.2l33.7,12.5
				c-6.4,13.3-16.5,24.5-29.1,32.2c-12.9,7.9-27.6,11.8-43.8,11.8c-23,0-42-7.6-57.3-22.8s-23-34.1-23-56.7s7.6-41.6,23-56.7
				S336.4,30,359.4,30C375.8,30,390.2,33.9,403.2,42z"/>
			
				<linearGradient id="SVGID_4_" gradientUnits="userSpaceOnUse" x1="6.34" y1="137.98" x2="929.7" y2="137.98" gradientTransform="matrix(1 0 0 -1 0 458)">
				<stop  offset="0" style="stop-color:#2ED0E6"/>
				<stop  offset="8.000000e-02" style="stop-color:#2DD2D5"/>
				<stop  offset="0.18" style="stop-color:#2DD4CA"/>
				<stop  offset="0.28" style="stop-color:#2DD4C6"/>
				<stop  offset="0.67" style="stop-color:#2BD7A6"/>
				<stop  offset="0.89" style="stop-color:#2BD991"/>
				<stop  offset="1" style="stop-color:#2ADB80"/>
			</linearGradient>
			<path class="st3" d="M84.2,284.6c-2-6.8-10.1-12-20.3-12c-10.5,0-18.4,5.2-18.4,12.5c0,4.6,4.2,8.8,12.7,12.2
				c3.1,1.1,10.7,3.5,23,7.2c9.4,2.9,14.2,4.4,23,9.6c12.7,6.8,20.1,17.5,21,36.3c0,14.9-5.2,26.7-16,35.7s-24.5,13.3-41.3,13.3
				c-15.5,0-28.9-3.7-40-10.9S9.6,371.9,6.3,360.3l34.8-8.3c2.4,8.8,12.9,15.5,26.7,15.5c12.5,0,22.5-5.9,22.5-14
				c0-2.8-1.3-5.2-3.9-7.4c-5-4.4-10.3-6.1-19-9l-2.2-0.7c-5-1.5-9-2.8-11.6-3.5L42.9,329c-3.6-1.4-7.1-3.1-10.5-5
				c-4.6-3.3-12.3-8.5-15.5-14c-4-6.8-6.1-14.5-6.1-22.3c0-14,4.8-25.4,14.4-33.9c9.8-8.8,22.5-13.2,38.1-13.2
				c13.8,0,25.8,3.5,35.9,10.3c10.3,6.8,16.6,15.3,19.5,25.6L84.2,284.6z"/>
			
				<linearGradient id="SVGID_5_" gradientUnits="userSpaceOnUse" x1="6.34" y1="118.31" x2="929.7" y2="118.31" gradientTransform="matrix(1 0 0 -1 0 458)">
				<stop  offset="0" style="stop-color:#2ED0E6"/>
				<stop  offset="8.000000e-02" style="stop-color:#2DD2D5"/>
				<stop  offset="0.18" style="stop-color:#2DD4CA"/>
				<stop  offset="0.28" style="stop-color:#2DD4C6"/>
				<stop  offset="0.67" style="stop-color:#2BD7A6"/>
				<stop  offset="0.89" style="stop-color:#2BD991"/>
				<stop  offset="1" style="stop-color:#2ADB80"/>
			</linearGradient>
			<path class="st4" d="M135.4,339.7c0-16.8,5.7-31.1,17.3-42.4c11.6-11.6,26.2-17.3,43.5-17.3s31.7,5.7,43.3,17.3
				c11.6,11.4,17.5,25.6,17.5,42.4s-5.9,31.1-17.5,42.7c-11.6,11.4-26,17.1-43.3,17.1s-31.9-5.7-43.5-17.1
				C141.1,370.8,135.4,356.5,135.4,339.7z M215,359.2c5.2-5.2,8-12.2,7.9-19.5c0.2-7.2-2.7-14.2-7.9-19.2
				c-4.8-5.3-11.7-8.3-18.8-8.1c-7.2-0.2-14.1,2.7-19,7.9c-10.2,11-10.2,28,0,38.9c10.4,10.5,27.3,10.5,37.7,0.1
				C214.9,359.2,215,359.2,215,359.2L215,359.2z"/>
			
				<linearGradient id="SVGID_6_" gradientUnits="userSpaceOnUse" x1="6.34" y1="143.46" x2="929.7" y2="143.46" gradientTransform="matrix(1 0 0 -1 0 458)">
				<stop  offset="0" style="stop-color:#2ED0E6"/>
				<stop  offset="8.000000e-02" style="stop-color:#2DD2D5"/>
				<stop  offset="0.18" style="stop-color:#2DD4CA"/>
				<stop  offset="0.28" style="stop-color:#2DD4C6"/>
				<stop  offset="0.67" style="stop-color:#2BD7A6"/>
				<stop  offset="0.89" style="stop-color:#2BD991"/>
				<stop  offset="1" style="stop-color:#2ADB80"/>
			</linearGradient>
			<path class="st5" d="M271.7,396.6V232.5h32.8v164.1H271.7z"/>
			
				<linearGradient id="SVGID_7_" gradientUnits="userSpaceOnUse" x1="6.34" y1="116.87" x2="929.7" y2="116.87" gradientTransform="matrix(1 0 0 -1 0 458)">
				<stop  offset="0" style="stop-color:#2ED0E6"/>
				<stop  offset="8.000000e-02" style="stop-color:#2DD2D5"/>
				<stop  offset="0.18" style="stop-color:#2DD4CA"/>
				<stop  offset="0.28" style="stop-color:#2DD4C6"/>
				<stop  offset="0.67" style="stop-color:#2BD7A6"/>
				<stop  offset="0.89" style="stop-color:#2BD991"/>
				<stop  offset="1" style="stop-color:#2ADB80"/>
			</linearGradient>
			<path class="st6" d="M322.9,282.8h32.8v64.3c0,12.5,8.8,21.9,20.8,21.9s21-9.4,21-21.9v-64.3h32.8v113.8h-32.8V385
				c-7.6,9.6-17.9,14.4-31.1,14.4c-12.2,0-22.5-4.1-31.1-12.5c-8.3-8.3-12.5-18.6-12.5-31.1V282.8z"/>
			
				<linearGradient id="SVGID_8_" gradientUnits="userSpaceOnUse" x1="6.34" y1="129.37" x2="929.7" y2="129.37" gradientTransform="matrix(1 0 0 -1 0 458)">
				<stop  offset="0" style="stop-color:#2ED0E6"/>
				<stop  offset="8.000000e-02" style="stop-color:#2DD2D5"/>
				<stop  offset="0.18" style="stop-color:#2DD4CA"/>
				<stop  offset="0.28" style="stop-color:#2DD4C6"/>
				<stop  offset="0.67" style="stop-color:#2BD7A6"/>
				<stop  offset="0.89" style="stop-color:#2BD991"/>
				<stop  offset="1" style="stop-color:#2ADB80"/>
			</linearGradient>
			<path class="st7" d="M441.2,282.8h15.5v-22.1h32.8v22.1h25.8v28.4h-25.8v42.6c0,7,5.2,12,12.5,12h13.3v30.6h-18.8
				c-11.1,0-20.8-3.5-28.4-10.3c-7.4-6.6-11.6-16.1-11.4-26v-49h-15.5V282.8z"/>
			
				<linearGradient id="SVGID_9_" gradientUnits="userSpaceOnUse" x1="6.34" y1="142.4697" x2="929.7" y2="142.4697" gradientTransform="matrix(1 0 0 -1 0 458)">
				<stop  offset="0" style="stop-color:#2ED0E6"/>
				<stop  offset="8.000000e-02" style="stop-color:#2DD2D5"/>
				<stop  offset="0.18" style="stop-color:#2DD4CA"/>
				<stop  offset="0.28" style="stop-color:#2DD4C6"/>
				<stop  offset="0.67" style="stop-color:#2BD7A6"/>
				<stop  offset="0.89" style="stop-color:#2BD991"/>
				<stop  offset="1" style="stop-color:#2ADB80"/>
			</linearGradient>
			<path class="st8" d="M525.2,254.6c-0.2-5.4,1.9-10.6,5.7-14.4c3.9-3.8,9.2-5.8,14.7-5.7c5.4-0.2,10.6,1.9,14.4,5.7
				c7.9,8,7.9,20.8,0,28.8c-3.8,3.8-9.1,5.9-14.4,5.7c-5.4,0.1-10.7-1.9-14.6-5.7C527.1,265.2,525.1,260,525.2,254.6z M529.2,396.6
				V282.8H562v113.8L529.2,396.6z"/>
			
				<linearGradient id="SVGID_10_" gradientUnits="userSpaceOnUse" x1="6.34" y1="118.31" x2="929.7" y2="118.31" gradientTransform="matrix(1 0 0 -1 0 458)">
				<stop  offset="0" style="stop-color:#2ED0E6"/>
				<stop  offset="8.000000e-02" style="stop-color:#2DD2D5"/>
				<stop  offset="0.18" style="stop-color:#2DD4CA"/>
				<stop  offset="0.28" style="stop-color:#2DD4C6"/>
				<stop  offset="0.67" style="stop-color:#2BD7A6"/>
				<stop  offset="0.89" style="stop-color:#2BD991"/>
				<stop  offset="1" style="stop-color:#2ADB80"/>
			</linearGradient>
			<path class="st9" d="M576.8,339.7c0-16.8,5.7-31.1,17.3-42.4c11.6-11.6,26.2-17.3,43.5-17.3s31.7,5.7,43.3,17.3
				c11.6,11.4,17.5,25.6,17.5,42.4s-5.9,31.1-17.5,42.7c-11.6,11.4-26,17.1-43.3,17.1c-17.3,0-31.9-5.7-43.5-17.1
				C582.5,370.8,576.8,356.5,576.8,339.7z M656.5,359.2c5.2-5.2,8-12.2,7.9-19.5c0.2-7.2-2.7-14.2-7.9-19.2
				c-4.8-5.3-11.7-8.3-18.8-8.1c-7.2-0.2-14.1,2.7-19,7.9c-10.2,11-10.2,28,0,38.9c10.4,10.5,27.3,10.5,37.7,0.1
				C656.4,359.2,656.5,359.2,656.5,359.2L656.5,359.2z"/>
			
				<linearGradient id="SVGID_11_" gradientUnits="userSpaceOnUse" x1="6.34" y1="119.7" x2="929.7" y2="119.7" gradientTransform="matrix(1 0 0 -1 0 458)">
				<stop  offset="0" style="stop-color:#2ED0E6"/>
				<stop  offset="8.000000e-02" style="stop-color:#2DD2D5"/>
				<stop  offset="0.18" style="stop-color:#2DD4CA"/>
				<stop  offset="0.28" style="stop-color:#2DD4C6"/>
				<stop  offset="0.67" style="stop-color:#2BD7A6"/>
				<stop  offset="0.89" style="stop-color:#2BD991"/>
				<stop  offset="1" style="stop-color:#2ADB80"/>
			</linearGradient>
			<path class="st10" d="M713.1,282.8H746v11.6c7.6-9.6,17.9-14.4,31-14.4c12.3,0,22.5,4.2,30.8,12.5c8.5,8.3,12.7,18.6,12.7,31.1
				v73.1h-32.8v-64.3c0-12.5-8.8-21.9-20.8-21.9s-21,9.4-21,21.9v64.3h-32.8V282.8z"/>
			
				<linearGradient id="SVGID_12_" gradientUnits="userSpaceOnUse" x1="6.34" y1="118.31" x2="929.7" y2="118.31" gradientTransform="matrix(1 0 0 -1 0 458)">
				<stop  offset="0" style="stop-color:#2ED0E6"/>
				<stop  offset="8.000000e-02" style="stop-color:#2DD2D5"/>
				<stop  offset="0.18" style="stop-color:#2DD4CA"/>
				<stop  offset="0.28" style="stop-color:#2DD4C6"/>
				<stop  offset="0.67" style="stop-color:#2BD7A6"/>
				<stop  offset="0.89" style="stop-color:#2BD991"/>
				<stop  offset="1" style="stop-color:#2ADB80"/>
			</linearGradient>
			<path class="st11" d="M898,315.9c-2-6.3-7.7-9.6-17.1-9.6c-8.5,0-12.9,2.4-12.9,7.4c0,2.9,3.1,5.5,9,7.7l20.3,6.6
				c23,7.2,32.4,17.7,32.4,35c0,23.8-18.6,36.5-46.8,36.5c-28.7,0-45.7-12.5-49-34.1l30.2-4.2c2.2,7.7,8.8,11.4,19.5,11.4
				c8.8,0,14.9-3.1,14.9-8.3c0-3.7-3.7-6.6-11.4-8.8l-20.8-6.1c-21.2-5.9-30-16-30-32.8c0-25.2,18.4-36.5,46.2-36.5
				c26.5,0,42.7,11.6,45.5,31.1L898,315.9z"/>
			
				<linearGradient id="SVGID_13_" gradientUnits="userSpaceOnUse" x1="6.34" y1="137.98" x2="929.7" y2="137.98" gradientTransform="matrix(1 0 0 -1 0 458)">
				<stop  offset="0" style="stop-color:#2ED0E6"/>
				<stop  offset="8.000000e-02" style="stop-color:#2DD2D5"/>
				<stop  offset="0.18" style="stop-color:#2DD4CA"/>
				<stop  offset="0.28" style="stop-color:#2DD4C6"/>
				<stop  offset="0.67" style="stop-color:#2BD7A6"/>
				<stop  offset="0.89" style="stop-color:#2BD991"/>
				<stop  offset="1" style="stop-color:#2ADB80"/>
			</linearGradient>
			<path class="st12" d="M84.2,284.6c-2-6.8-10.1-12-20.3-12c-10.5,0-18.4,5.2-18.4,12.5c0,4.6,4.2,8.8,12.7,12.2
				c3.1,1.1,10.7,3.5,23,7.2c9.4,2.9,14.2,4.4,23,9.6c12.7,6.8,20.1,17.5,21,36.3c0,14.9-5.2,26.7-16,35.7s-24.5,13.3-41.3,13.3
				c-15.5,0-28.9-3.7-40-10.9S9.6,371.9,6.3,360.3l34.8-8.3c2.4,8.8,12.9,15.5,26.7,15.5c12.5,0,22.5-5.9,22.5-14
				c0-2.8-1.3-5.2-3.9-7.4c-5-4.4-10.3-6.1-19-9l-2.2-0.7c-5-1.5-9-2.8-11.6-3.5L42.9,329c-3.6-1.4-7.1-3.1-10.5-5
				c-4.6-3.3-12.3-8.5-15.5-14c-4-6.8-6.1-14.5-6.1-22.3c0-14,4.8-25.4,14.4-33.9c9.8-8.8,22.5-13.2,38.1-13.2
				c13.8,0,25.8,3.5,35.9,10.3c10.3,6.8,16.6,15.3,19.5,25.6L84.2,284.6z"/>
			
				<linearGradient id="SVGID_14_" gradientUnits="userSpaceOnUse" x1="6.34" y1="118.31" x2="929.7" y2="118.31" gradientTransform="matrix(1 0 0 -1 0 458)">
				<stop  offset="0" style="stop-color:#2ED0E6"/>
				<stop  offset="8.000000e-02" style="stop-color:#2DD2D5"/>
				<stop  offset="0.18" style="stop-color:#2DD4CA"/>
				<stop  offset="0.28" style="stop-color:#2DD4C6"/>
				<stop  offset="0.67" style="stop-color:#2BD7A6"/>
				<stop  offset="0.89" style="stop-color:#2BD991"/>
				<stop  offset="1" style="stop-color:#2ADB80"/>
			</linearGradient>
			<path class="st13" d="M135.4,339.7c0-16.8,5.7-31.1,17.3-42.4c11.6-11.6,26.2-17.3,43.5-17.3s31.7,5.7,43.3,17.3
				c11.6,11.4,17.5,25.6,17.5,42.4s-5.9,31.1-17.5,42.7c-11.6,11.4-26,17.1-43.3,17.1s-31.9-5.7-43.5-17.1
				C141.1,370.8,135.4,356.5,135.4,339.7z M215,359.2c5.2-5.2,8-12.2,7.9-19.5c0.2-7.2-2.7-14.2-7.9-19.2
				c-4.8-5.3-11.7-8.3-18.8-8.1c-7.2-0.2-14.1,2.7-19,7.9c-10.2,11-10.2,28,0,38.9c10.4,10.5,27.3,10.5,37.7,0.1
				C214.9,359.2,215,359.2,215,359.2L215,359.2z"/>
			
				<linearGradient id="SVGID_15_" gradientUnits="userSpaceOnUse" x1="6.34" y1="143.46" x2="929.7" y2="143.46" gradientTransform="matrix(1 0 0 -1 0 458)">
				<stop  offset="0" style="stop-color:#2ED0E6"/>
				<stop  offset="8.000000e-02" style="stop-color:#2DD2D5"/>
				<stop  offset="0.18" style="stop-color:#2DD4CA"/>
				<stop  offset="0.28" style="stop-color:#2DD4C6"/>
				<stop  offset="0.67" style="stop-color:#2BD7A6"/>
				<stop  offset="0.89" style="stop-color:#2BD991"/>
				<stop  offset="1" style="stop-color:#2ADB80"/>
			</linearGradient>
			<path class="st14" d="M271.7,396.6V232.5h32.8v164.1H271.7z"/>
			
				<linearGradient id="SVGID_16_" gradientUnits="userSpaceOnUse" x1="6.34" y1="116.87" x2="929.7" y2="116.87" gradientTransform="matrix(1 0 0 -1 0 458)">
				<stop  offset="0" style="stop-color:#2ED0E6"/>
				<stop  offset="8.000000e-02" style="stop-color:#2DD2D5"/>
				<stop  offset="0.18" style="stop-color:#2DD4CA"/>
				<stop  offset="0.28" style="stop-color:#2DD4C6"/>
				<stop  offset="0.67" style="stop-color:#2BD7A6"/>
				<stop  offset="0.89" style="stop-color:#2BD991"/>
				<stop  offset="1" style="stop-color:#2ADB80"/>
			</linearGradient>
			<path class="st15" d="M322.9,282.8h32.8v64.3c0,12.5,8.8,21.9,20.8,21.9s21-9.4,21-21.9v-64.3h32.8v113.8h-32.8V385
				c-7.6,9.6-17.9,14.4-31.1,14.4c-12.2,0-22.5-4.1-31.1-12.5c-8.3-8.3-12.5-18.6-12.5-31.1V282.8z"/>
			
				<linearGradient id="SVGID_17_" gradientUnits="userSpaceOnUse" x1="6.34" y1="129.37" x2="929.7" y2="129.37" gradientTransform="matrix(1 0 0 -1 0 458)">
				<stop  offset="0" style="stop-color:#2ED0E6"/>
				<stop  offset="8.000000e-02" style="stop-color:#2DD2D5"/>
				<stop  offset="0.18" style="stop-color:#2DD4CA"/>
				<stop  offset="0.28" style="stop-color:#2DD4C6"/>
				<stop  offset="0.67" style="stop-color:#2BD7A6"/>
				<stop  offset="0.89" style="stop-color:#2BD991"/>
				<stop  offset="1" style="stop-color:#2ADB80"/>
			</linearGradient>
			<path class="st16" d="M441.2,282.8h15.5v-22.1h32.8v22.1h25.8v28.4h-25.8v42.6c0,7,5.2,12,12.5,12h13.3v30.6h-18.8
				c-11.1,0-20.8-3.5-28.4-10.3c-7.4-6.6-11.6-16.1-11.4-26v-49h-15.5V282.8z"/>
			
				<linearGradient id="SVGID_18_" gradientUnits="userSpaceOnUse" x1="6.34" y1="142.4697" x2="929.7" y2="142.4697" gradientTransform="matrix(1 0 0 -1 0 458)">
				<stop  offset="0" style="stop-color:#2ED0E6"/>
				<stop  offset="8.000000e-02" style="stop-color:#2DD2D5"/>
				<stop  offset="0.18" style="stop-color:#2DD4CA"/>
				<stop  offset="0.28" style="stop-color:#2DD4C6"/>
				<stop  offset="0.67" style="stop-color:#2BD7A6"/>
				<stop  offset="0.89" style="stop-color:#2BD991"/>
				<stop  offset="1" style="stop-color:#2ADB80"/>
			</linearGradient>
			<path class="st17" d="M525.2,254.6c-0.2-5.4,1.9-10.6,5.7-14.4c3.9-3.8,9.2-5.8,14.7-5.7c5.4-0.2,10.6,1.9,14.4,5.7
				c7.9,8,7.9,20.8,0,28.8c-3.8,3.8-9.1,5.9-14.4,5.7c-5.4,0.1-10.7-1.9-14.6-5.7C527.1,265.2,525.1,260,525.2,254.6z M529.2,396.6
				V282.8H562v113.8L529.2,396.6z"/>
			
				<linearGradient id="SVGID_19_" gradientUnits="userSpaceOnUse" x1="6.34" y1="118.31" x2="929.7" y2="118.31" gradientTransform="matrix(1 0 0 -1 0 458)">
				<stop  offset="0" style="stop-color:#2ED0E6"/>
				<stop  offset="8.000000e-02" style="stop-color:#2DD2D5"/>
				<stop  offset="0.18" style="stop-color:#2DD4CA"/>
				<stop  offset="0.28" style="stop-color:#2DD4C6"/>
				<stop  offset="0.67" style="stop-color:#2BD7A6"/>
				<stop  offset="0.89" style="stop-color:#2BD991"/>
				<stop  offset="1" style="stop-color:#2ADB80"/>
			</linearGradient>
			<path class="st18" d="M576.8,339.7c0-16.8,5.7-31.1,17.3-42.4c11.6-11.6,26.2-17.3,43.5-17.3s31.7,5.7,43.3,17.3
				c11.6,11.4,17.5,25.6,17.5,42.4s-5.9,31.1-17.5,42.7c-11.6,11.4-26,17.1-43.3,17.1c-17.3,0-31.9-5.7-43.5-17.1
				C582.5,370.8,576.8,356.5,576.8,339.7z M656.5,359.2c5.2-5.2,8-12.2,7.9-19.5c0.2-7.2-2.7-14.2-7.9-19.2
				c-4.8-5.3-11.7-8.3-18.8-8.1c-7.2-0.2-14.1,2.7-19,7.9c-10.2,11-10.2,28,0,38.9c10.4,10.5,27.3,10.5,37.7,0.1
				C656.4,359.2,656.5,359.2,656.5,359.2L656.5,359.2z"/>
			
				<linearGradient id="SVGID_20_" gradientUnits="userSpaceOnUse" x1="6.34" y1="119.7" x2="929.7" y2="119.7" gradientTransform="matrix(1 0 0 -1 0 458)">
				<stop  offset="0" style="stop-color:#2ED0E6"/>
				<stop  offset="8.000000e-02" style="stop-color:#2DD2D5"/>
				<stop  offset="0.18" style="stop-color:#2DD4CA"/>
				<stop  offset="0.28" style="stop-color:#2DD4C6"/>
				<stop  offset="0.67" style="stop-color:#2BD7A6"/>
				<stop  offset="0.89" style="stop-color:#2BD991"/>
				<stop  offset="1" style="stop-color:#2ADB80"/>
			</linearGradient>
			<path class="st19" d="M713.1,282.8H746v11.6c7.6-9.6,17.9-14.4,31-14.4c12.3,0,22.5,4.2,30.8,12.5c8.5,8.3,12.7,18.6,12.7,31.1
				v73.1h-32.8v-64.3c0-12.5-8.8-21.9-20.8-21.9s-21,9.4-21,21.9v64.3h-32.8V282.8z"/>
			
				<linearGradient id="SVGID_21_" gradientUnits="userSpaceOnUse" x1="6.34" y1="118.31" x2="929.7" y2="118.31" gradientTransform="matrix(1 0 0 -1 0 458)">
				<stop  offset="0" style="stop-color:#2ED0E6"/>
				<stop  offset="8.000000e-02" style="stop-color:#2DD2D5"/>
				<stop  offset="0.18" style="stop-color:#2DD4CA"/>
				<stop  offset="0.28" style="stop-color:#2DD4C6"/>
				<stop  offset="0.67" style="stop-color:#2BD7A6"/>
				<stop  offset="0.89" style="stop-color:#2BD991"/>
				<stop  offset="1" style="stop-color:#2ADB80"/>
			</linearGradient>
			<path class="st20" d="M898,315.9c-2-6.3-7.7-9.6-17.1-9.6c-8.5,0-12.9,2.4-12.9,7.4c0,2.9,3.1,5.5,9,7.7l20.3,6.6
				c23,7.2,32.4,17.7,32.4,35c0,23.8-18.6,36.5-46.8,36.5c-28.7,0-45.7-12.5-49-34.1l30.2-4.2c2.2,7.7,8.8,11.4,19.5,11.4
				c8.8,0,14.9-3.1,14.9-8.3c0-3.7-3.7-6.6-11.4-8.8l-20.8-6.1c-21.2-5.9-30-16-30-32.8c0-25.2,18.4-36.5,46.2-36.5
				c26.5,0,42.7,11.6,45.5,31.1L898,315.9z"/>
			
				<linearGradient id="SVGID_22_" gradientUnits="userSpaceOnUse" x1="6.34" y1="137.98" x2="929.7" y2="137.98" gradientTransform="matrix(1 0 0 -1 0 458)">
				<stop  offset="0" style="stop-color:#2ED0E6"/>
				<stop  offset="8.000000e-02" style="stop-color:#2DD2D5"/>
				<stop  offset="0.18" style="stop-color:#2DD4CA"/>
				<stop  offset="0.28" style="stop-color:#2DD4C6"/>
				<stop  offset="0.67" style="stop-color:#2BD7A6"/>
				<stop  offset="0.89" style="stop-color:#2BD991"/>
				<stop  offset="1" style="stop-color:#2ADB80"/>
			</linearGradient>
			<path class="st21" d="M84.2,284.6c-2-6.8-10.1-12-20.3-12c-10.5,0-18.4,5.2-18.4,12.5c0,4.6,4.2,8.8,12.7,12.2
				c3.1,1.1,10.7,3.5,23,7.2c9.4,2.9,14.2,4.4,23,9.6c12.7,6.8,20.1,17.5,21,36.3c0,14.9-5.2,26.7-16,35.7s-24.5,13.3-41.3,13.3
				c-15.5,0-28.9-3.7-40-10.9S9.6,371.9,6.3,360.3l34.8-8.3c2.4,8.8,12.9,15.5,26.7,15.5c12.5,0,22.5-5.9,22.5-14
				c0-2.8-1.3-5.2-3.9-7.4c-5-4.4-10.3-6.1-19-9l-2.2-0.7c-5-1.5-9-2.8-11.6-3.5L42.9,329c-3.6-1.4-7.1-3.1-10.5-5
				c-4.6-3.3-12.3-8.5-15.5-14c-4-6.8-6.1-14.5-6.1-22.3c0-14,4.8-25.4,14.4-33.9c9.8-8.8,22.5-13.2,38.1-13.2
				c13.8,0,25.8,3.5,35.9,10.3c10.3,6.8,16.6,15.3,19.5,25.6L84.2,284.6z"/>
			
				<linearGradient id="SVGID_23_" gradientUnits="userSpaceOnUse" x1="6.34" y1="118.31" x2="929.7" y2="118.31" gradientTransform="matrix(1 0 0 -1 0 458)">
				<stop  offset="0" style="stop-color:#2ED0E6"/>
				<stop  offset="8.000000e-02" style="stop-color:#2DD2D5"/>
				<stop  offset="0.18" style="stop-color:#2DD4CA"/>
				<stop  offset="0.28" style="stop-color:#2DD4C6"/>
				<stop  offset="0.67" style="stop-color:#2BD7A6"/>
				<stop  offset="0.89" style="stop-color:#2BD991"/>
				<stop  offset="1" style="stop-color:#2ADB80"/>
			</linearGradient>
			<path class="st22" d="M135.4,339.7c0-16.8,5.7-31.1,17.3-42.4c11.6-11.6,26.2-17.3,43.5-17.3s31.7,5.7,43.3,17.3
				c11.6,11.4,17.5,25.6,17.5,42.4s-5.9,31.1-17.5,42.7c-11.6,11.4-26,17.1-43.3,17.1s-31.9-5.7-43.5-17.1
				C141.1,370.8,135.4,356.5,135.4,339.7z M215,359.2c5.2-5.2,8-12.2,7.9-19.5c0.2-7.2-2.7-14.2-7.9-19.2
				c-4.8-5.3-11.7-8.3-18.8-8.1c-7.2-0.2-14.1,2.7-19,7.9c-10.2,11-10.2,28,0,38.9c10.4,10.5,27.3,10.5,37.7,0.1
				C214.9,359.2,215,359.2,215,359.2L215,359.2z"/>
			
				<linearGradient id="SVGID_24_" gradientUnits="userSpaceOnUse" x1="6.34" y1="143.46" x2="929.7" y2="143.46" gradientTransform="matrix(1 0 0 -1 0 458)">
				<stop  offset="0" style="stop-color:#2ED0E6"/>
				<stop  offset="8.000000e-02" style="stop-color:#2DD2D5"/>
				<stop  offset="0.18" style="stop-color:#2DD4CA"/>
				<stop  offset="0.28" style="stop-color:#2DD4C6"/>
				<stop  offset="0.67" style="stop-color:#2BD7A6"/>
				<stop  offset="0.89" style="stop-color:#2BD991"/>
				<stop  offset="1" style="stop-color:#2ADB80"/>
			</linearGradient>
			<path class="st23" d="M271.7,396.6V232.5h32.8v164.1H271.7z"/>
			
				<linearGradient id="SVGID_25_" gradientUnits="userSpaceOnUse" x1="6.34" y1="116.87" x2="929.7" y2="116.87" gradientTransform="matrix(1 0 0 -1 0 458)">
				<stop  offset="0" style="stop-color:#2ED0E6"/>
				<stop  offset="8.000000e-02" style="stop-color:#2DD2D5"/>
				<stop  offset="0.18" style="stop-color:#2DD4CA"/>
				<stop  offset="0.28" style="stop-color:#2DD4C6"/>
				<stop  offset="0.67" style="stop-color:#2BD7A6"/>
				<stop  offset="0.89" style="stop-color:#2BD991"/>
				<stop  offset="1" style="stop-color:#2ADB80"/>
			</linearGradient>
			<path class="st24" d="M322.9,282.8h32.8v64.3c0,12.5,8.8,21.9,20.8,21.9s21-9.4,21-21.9v-64.3h32.8v113.8h-32.8V385
				c-7.6,9.6-17.9,14.4-31.1,14.4c-12.2,0-22.5-4.1-31.1-12.5c-8.3-8.3-12.5-18.6-12.5-31.1V282.8z"/>
			
				<linearGradient id="SVGID_26_" gradientUnits="userSpaceOnUse" x1="6.34" y1="129.37" x2="929.7" y2="129.37" gradientTransform="matrix(1 0 0 -1 0 458)">
				<stop  offset="0" style="stop-color:#2ED0E6"/>
				<stop  offset="8.000000e-02" style="stop-color:#2DD2D5"/>
				<stop  offset="0.18" style="stop-color:#2DD4CA"/>
				<stop  offset="0.28" style="stop-color:#2DD4C6"/>
				<stop  offset="0.67" style="stop-color:#2BD7A6"/>
				<stop  offset="0.89" style="stop-color:#2BD991"/>
				<stop  offset="1" style="stop-color:#2ADB80"/>
			</linearGradient>
			<path class="st25" d="M441.2,282.8h15.5v-22.1h32.8v22.1h25.8v28.4h-25.8v42.6c0,7,5.2,12,12.5,12h13.3v30.6h-18.8
				c-11.1,0-20.8-3.5-28.4-10.3c-7.4-6.6-11.6-16.1-11.4-26v-49h-15.5V282.8z"/>
			
				<linearGradient id="SVGID_27_" gradientUnits="userSpaceOnUse" x1="6.34" y1="142.4697" x2="929.7" y2="142.4697" gradientTransform="matrix(1 0 0 -1 0 458)">
				<stop  offset="0" style="stop-color:#2ED0E6"/>
				<stop  offset="8.000000e-02" style="stop-color:#2DD2D5"/>
				<stop  offset="0.18" style="stop-color:#2DD4CA"/>
				<stop  offset="0.28" style="stop-color:#2DD4C6"/>
				<stop  offset="0.67" style="stop-color:#2BD7A6"/>
				<stop  offset="0.89" style="stop-color:#2BD991"/>
				<stop  offset="1" style="stop-color:#2ADB80"/>
			</linearGradient>
			<path class="st26" d="M525.2,254.6c-0.2-5.4,1.9-10.6,5.7-14.4c3.9-3.8,9.2-5.8,14.7-5.7c5.4-0.2,10.6,1.9,14.4,5.7
				c7.9,8,7.9,20.8,0,28.8c-3.8,3.8-9.1,5.9-14.4,5.7c-5.4,0.1-10.7-1.9-14.6-5.7C527.1,265.2,525.1,260,525.2,254.6z M529.2,396.6
				V282.8H562v113.8L529.2,396.6z"/>
			
				<linearGradient id="SVGID_28_" gradientUnits="userSpaceOnUse" x1="6.34" y1="118.31" x2="929.7" y2="118.31" gradientTransform="matrix(1 0 0 -1 0 458)">
				<stop  offset="0" style="stop-color:#2ED0E6"/>
				<stop  offset="8.000000e-02" style="stop-color:#2DD2D5"/>
				<stop  offset="0.18" style="stop-color:#2DD4CA"/>
				<stop  offset="0.28" style="stop-color:#2DD4C6"/>
				<stop  offset="0.67" style="stop-color:#2BD7A6"/>
				<stop  offset="0.89" style="stop-color:#2BD991"/>
				<stop  offset="1" style="stop-color:#2ADB80"/>
			</linearGradient>
			<path class="st27" d="M576.8,339.7c0-16.8,5.7-31.1,17.3-42.4c11.6-11.6,26.2-17.3,43.5-17.3s31.7,5.7,43.3,17.3
				c11.6,11.4,17.5,25.6,17.5,42.4s-5.9,31.1-17.5,42.7c-11.6,11.4-26,17.1-43.3,17.1c-17.3,0-31.9-5.7-43.5-17.1
				C582.5,370.8,576.8,356.5,576.8,339.7z M656.5,359.2c5.2-5.2,8-12.2,7.9-19.5c0.2-7.2-2.7-14.2-7.9-19.2
				c-4.8-5.3-11.7-8.3-18.8-8.1c-7.2-0.2-14.1,2.7-19,7.9c-10.2,11-10.2,28,0,38.9c10.4,10.5,27.3,10.5,37.7,0.1
				C656.4,359.2,656.5,359.2,656.5,359.2L656.5,359.2z"/>
			
				<linearGradient id="SVGID_29_" gradientUnits="userSpaceOnUse" x1="6.34" y1="119.7" x2="929.7" y2="119.7" gradientTransform="matrix(1 0 0 -1 0 458)">
				<stop  offset="0" style="stop-color:#2ED0E6"/>
				<stop  offset="8.000000e-02" style="stop-color:#2DD2D5"/>
				<stop  offset="0.18" style="stop-color:#2DD4CA"/>
				<stop  offset="0.28" style="stop-color:#2DD4C6"/>
				<stop  offset="0.67" style="stop-color:#2BD7A6"/>
				<stop  offset="0.89" style="stop-color:#2BD991"/>
				<stop  offset="1" style="stop-color:#2ADB80"/>
			</linearGradient>
			<path class="st28" d="M713.1,282.8H746v11.6c7.6-9.6,17.9-14.4,31-14.4c12.3,0,22.5,4.2,30.8,12.5c8.5,8.3,12.7,18.6,12.7,31.1
				v73.1h-32.8v-64.3c0-12.5-8.8-21.9-20.8-21.9s-21,9.4-21,21.9v64.3h-32.8V282.8z"/>
			
				<linearGradient id="SVGID_30_" gradientUnits="userSpaceOnUse" x1="6.34" y1="118.31" x2="929.7" y2="118.31" gradientTransform="matrix(1 0 0 -1 0 458)">
				<stop  offset="0" style="stop-color:#2ED0E6"/>
				<stop  offset="8.000000e-02" style="stop-color:#2DD2D5"/>
				<stop  offset="0.18" style="stop-color:#2DD4CA"/>
				<stop  offset="0.28" style="stop-color:#2DD4C6"/>
				<stop  offset="0.67" style="stop-color:#2BD7A6"/>
				<stop  offset="0.89" style="stop-color:#2BD991"/>
				<stop  offset="1" style="stop-color:#2ADB80"/>
			</linearGradient>
			<path class="st29" d="M898,315.9c-2-6.3-7.7-9.6-17.1-9.6c-8.5,0-12.9,2.4-12.9,7.4c0,2.9,3.1,5.5,9,7.7l20.3,6.6
				c23,7.2,32.4,17.7,32.4,35c0,23.8-18.6,36.5-46.8,36.5c-28.7,0-45.7-12.5-49-34.1l30.2-4.2c2.2,7.7,8.8,11.4,19.5,11.4
				c8.8,0,14.9-3.1,14.9-8.3c0-3.7-3.7-6.6-11.4-8.8l-20.8-6.1c-21.2-5.9-30-16-30-32.8c0-25.2,18.4-36.5,46.2-36.5
				c26.5,0,42.7,11.6,45.5,31.1L898,315.9z"/>
			
				<linearGradient id="SVGID_31_" gradientUnits="userSpaceOnUse" x1="741.7763" y1="334.0488" x2="929.7" y2="334.0488" gradientTransform="matrix(1 0 0 -1 0 458)">
				<stop  offset="0" style="stop-color:#2ECEE4"/>
				<stop  offset="8.000000e-02" style="stop-color:#2DD0D3"/>
				<stop  offset="0.18" style="stop-color:#2DD2C8"/>
				<stop  offset="0.28" style="stop-color:#2DD2C4"/>
				<stop  offset="0.67" style="stop-color:#2FD5A4"/>
				<stop  offset="0.89" style="stop-color:#2FD790"/>
				<stop  offset="1" style="stop-color:#2ED97F"/>
			</linearGradient>
			<path class="st30" d="M929.7,199.8c0,19.2-11.1,23.9-24.8,10.2L749.6,54.7C736,41.1,740.6,30,759.8,30h134.9
				c19.3,0.1,34.9,15.7,35,35V199.8z"/>
		</g>
	</g>
</g>
</svg>
